<svg width="50" height="50" viewBox="0 0 50 50" fill="none" xmlns="http://www.w3.org/2000/svg">
<path d="M33.6914 42.7858V36.5358H27.4414V33.4108H33.6914V27.1608H36.8164V33.4108H43.0664V36.5358H36.8164V42.7858H33.6914ZM8.69141 36.5879V33.4629H23.3711C23.3069 34.0115 23.2834 34.5339 23.3008 35.0301C23.3181 35.5263 23.3589 36.0455 23.4232 36.5879H8.69141ZM8.69141 28.2546V25.1296H28.4352C27.8369 25.5514 27.29 26.0228 26.7945 26.5436C26.299 27.0645 25.8483 27.6348 25.4424 28.2546H8.69141ZM8.69141 19.9212V16.7962H38.8997V19.9212H8.69141ZM8.69141 11.5879V8.46289H38.8997V11.5879H8.69141Z" fill="url(#paint0_linear_374_126)"/>
<defs>
<linearGradient id="paint0_linear_374_126" x1="43.0664" y1="10.023" x2="6.8437" y2="12.2121" gradientUnits="userSpaceOnUse">
<stop stop-color="#F46B45"/>
<stop offset="1" stop-color="#EEA849"/>
</linearGradient>
</defs>
</svg>
