<svg width="50" height="50" viewBox="0 0 50 50" fill="none" xmlns="http://www.w3.org/2000/svg">
<path d="M24.7915 44.7915L34.0702 20.8332H37.3233L46.6025 44.7915H43.2889L40.9296 38.4374H30.4645L28.1046 44.7915H24.7915ZM8.35299 38.6618L6.15768 36.466L16.5181 26.0858C15.3164 24.8705 14.174 23.4282 13.091 21.7587C12.0077 20.0893 11.1162 18.3919 10.4165 16.6665H13.7296C14.3306 17.9273 15.0618 19.1881 15.9233 20.4488C16.7848 21.7092 17.715 22.8563 18.7139 23.89C20.1934 22.3969 21.5929 20.5841 22.9124 18.4514C24.2318 16.3188 25.1641 14.3349 25.7092 12.4999H3.52539V9.37487H17.1874V6.00977H20.3124V9.37487H33.9743V12.4999H28.8738C28.1981 14.8395 27.1212 17.2853 25.6431 19.8374C24.1646 22.3895 22.5867 24.4936 20.9092 26.1499L26.0493 31.4139L24.8676 34.6233L18.7139 28.3129L8.35299 38.6618ZM31.466 35.6728H39.9275L35.6967 24.3066L31.466 35.6728Z" fill="url(#paint0_linear_375_253)"/>
<defs>
<linearGradient id="paint0_linear_375_253" x1="46.6025" y1="7.77257" x2="1.24791" y2="10.8125" gradientUnits="userSpaceOnUse">
<stop stop-color="#F46B45"/>
<stop offset="1" stop-color="#EEA849"/>
</linearGradient>
</defs>
</svg>
