<svg width="33" height="33" viewBox="0 0 33 33" fill="none" xmlns="http://www.w3.org/2000/svg">
<path d="M8.70511 26.3996C8.11674 26.3996 7.61873 26.1958 7.21108 25.7881C6.80343 25.3805 6.59961 24.8825 6.59961 24.2941V8.70511C6.59961 8.11674 6.80343 7.61873 7.21108 7.21108C7.61873 6.80343 8.11674 6.59961 8.70511 6.59961H17.4404V8.34667H8.70511C8.60048 8.34667 8.51458 8.38025 8.44742 8.44742C8.38025 8.51458 8.34667 8.60048 8.34667 8.70511V24.2941C8.34667 24.3987 8.38025 24.4846 8.44742 24.5518C8.51458 24.619 8.60048 24.6526 8.70511 24.6526H24.2941C24.3987 24.6526 24.4846 24.619 24.5518 24.5518C24.619 24.4846 24.6526 24.3987 24.6526 24.2941V15.5588H26.3996V24.2941C26.3996 24.8825 26.1958 25.3805 25.7881 25.7881C25.3805 26.1958 24.8825 26.3996 24.2941 26.3996H8.70511ZM9.95949 21.9647H23.0397L18.9746 16.5445L15.4805 21.0801L13.0055 17.9331L9.95949 21.9647ZM22.3231 13.0055V10.6761H19.9937V8.92902H22.3231V6.59961H24.0702V8.92902H26.3996V10.6761H24.0702V13.0055H22.3231Z" fill="url(#paint0_linear_391_31)"/>
<defs>
<linearGradient id="paint0_linear_391_31" x1="26.3996" y1="7.49961" x2="5.5351" y2="8.75863" gradientUnits="userSpaceOnUse">
<stop stop-color="#F46B45"/>
<stop offset="1" stop-color="#EEA849"/>
</linearGradient>
</defs>
</svg>
