<svg width="33" height="33" viewBox="0 0 33 33" fill="none" xmlns="http://www.w3.org/2000/svg">
<path d="M20.2583 22.6511C19.7775 22.6687 19.3189 22.6819 18.8825 22.6907C18.4462 22.6995 18.0588 22.7039 17.7205 22.7039H16.6252C15.3607 22.7039 14.1764 22.6863 13.0722 22.6511C12.1283 22.6159 11.1977 22.5675 10.2805 22.5059C9.36333 22.4443 8.69993 22.3607 8.29031 22.2551C7.82726 22.1319 7.42655 21.9031 7.08817 21.5687C6.74979 21.2343 6.51826 20.8383 6.3936 20.3807C6.28674 19.9759 6.20214 19.4831 6.13981 18.9023C6.07748 18.3215 6.0285 17.7671 5.99288 17.2391C5.95726 16.6055 5.93945 15.9631 5.93945 15.3119C5.93945 14.6607 5.95726 14.0183 5.99288 13.3847C6.0285 12.8567 6.07748 12.3023 6.13981 11.7215C6.20214 11.1407 6.28674 10.6479 6.3936 10.2431C6.51826 9.78552 6.74979 9.38952 7.08817 9.05512C7.42655 8.72072 7.82726 8.49192 8.29031 8.36872C8.69993 8.26312 9.36333 8.17952 10.2805 8.11792C11.1977 8.05632 12.1283 8.00792 13.0722 7.97272C14.1764 7.93752 15.3607 7.91992 16.6252 7.91992C17.8896 7.91992 19.074 7.93752 20.1782 7.97272C21.1221 8.00792 22.0526 8.05632 22.9698 8.11792C23.887 8.17952 24.5504 8.26312 24.96 8.36872C25.4231 8.49192 25.8238 8.72072 26.1622 9.05512C26.5005 9.38952 26.7321 9.78552 26.8567 10.2431C26.9636 10.6479 27.0482 11.1407 27.1105 11.7215C27.1729 12.3023 27.2218 12.8567 27.2575 13.3847C27.2931 14.0183 27.3109 14.6607 27.3109 15.3119V15.7607C26.9725 15.6199 26.6252 15.5099 26.269 15.4307C25.9128 15.3515 25.5477 15.3119 25.1737 15.3119C23.6955 15.3119 22.4355 15.8267 21.3937 16.8563C20.3518 17.8859 19.8309 19.1311 19.8309 20.5919C19.8309 20.9615 19.8665 21.3179 19.9377 21.6611C20.009 22.0043 20.1158 22.3343 20.2583 22.6511ZM14.488 18.4799L20.0446 15.3119L14.488 12.1439V18.4799ZM24.1052 23.7599V21.6479H21.968V19.5359H24.1052V17.4239H26.2423V19.5359H28.3795V21.6479H26.2423V23.7599H24.1052Z" fill="url(#paint0_linear_391_25)"/>
<defs>
<linearGradient id="paint0_linear_391_25" x1="28.3795" y1="8.63992" x2="4.81908" y2="10.654" gradientUnits="userSpaceOnUse">
<stop stop-color="#F46B45"/>
<stop offset="1" stop-color="#EEA849"/>
</linearGradient>
</defs>
</svg>
