<svg width="33" height="33" viewBox="0 0 33 33" fill="none" xmlns="http://www.w3.org/2000/svg">
<path d="M20.625 23.0312C18.9874 23.0312 17.5683 22.5099 16.3677 21.4672C15.1673 20.4245 14.4375 19.1125 14.1783 17.5312H5.84375V15.4688H14.1783C14.2753 14.836 14.4696 14.2177 14.7613 13.6139C15.0533 13.01 15.461 12.4825 15.9844 12.0312H8.59375V9.96875H20.625C22.432 9.96875 23.9722 10.6054 25.2457 11.8786C26.5194 13.1519 27.1563 14.6916 27.1563 16.4979C27.1563 18.3045 26.5194 19.8449 25.2457 21.1193C23.9722 22.3939 22.432 23.0312 20.625 23.0312ZM20.625 20.9688C21.8591 20.9688 22.9123 20.5324 23.7848 19.6598C24.6574 18.7873 25.0938 17.7341 25.0938 16.5C25.0938 15.2659 24.6574 14.2127 23.7848 13.3403C22.9123 12.4676 21.8591 12.0312 20.625 12.0312C19.3909 12.0312 18.3377 12.4676 17.4653 13.3403C16.5926 14.2127 16.1563 15.2659 16.1563 16.5C16.1563 17.7341 16.5926 18.7873 17.4653 19.6598C18.3377 20.5324 19.3909 20.9688 20.625 20.9688ZM9.96875 23.0312V20.9688H13.4063V23.0312H9.96875Z" fill="url(#paint0_linear_391_22)"/>
<defs>
<linearGradient id="paint0_linear_391_22" x1="27.1563" y1="10.5625" x2="4.83254" y2="12.7604" gradientUnits="userSpaceOnUse">
<stop stop-color="#F46B45"/>
<stop offset="1" stop-color="#EEA849"/>
</linearGradient>
</defs>
</svg>
