<svg width="33" height="33" viewBox="0 0 33 33" fill="none" xmlns="http://www.w3.org/2000/svg">
<path d="M15.1742 21.7807H10.9844C9.58858 21.7807 8.39882 21.2659 7.41507 20.2363C6.43133 19.2069 5.93945 17.9619 5.93945 16.5013C5.93945 15.0407 6.43133 13.7955 7.41507 12.7657C8.39882 11.7357 9.58858 11.2207 10.9844 11.2207H15.1742V12.9658H10.9844C10.0508 12.9658 9.25455 13.3107 8.59557 14.0006C7.9364 14.6905 7.60682 15.5239 7.60682 16.5007C7.60682 17.4776 7.9364 18.3109 8.59557 19.0008C9.25455 19.6907 10.0508 20.0356 10.9844 20.0356H15.1742V21.7807ZM12.331 17.3732V15.6282H20.6679V17.3732H12.331ZM17.8247 21.7807V20.0356H22.0146C22.9481 20.0356 23.7444 19.6907 24.4033 19.0008C25.0625 18.3109 25.3921 17.4776 25.3921 16.5007C25.3921 15.5239 25.0625 14.6905 24.4033 14.0006C23.7444 13.3107 22.9481 12.9658 22.0146 12.9658H17.8247V11.2207H22.0146C23.4103 11.2207 24.6001 11.7355 25.5838 12.7651C26.5676 13.7945 27.0595 15.0395 27.0595 16.5001C27.0595 17.9607 26.5676 19.2059 25.5838 20.2357C24.6001 21.2657 23.4103 21.7807 22.0146 21.7807H17.8247Z" fill="url(#paint0_linear_391_16)"/>
<defs>
<linearGradient id="paint0_linear_391_16" x1="27.0595" y1="11.7007" x2="5.0436" y2="14.3577" gradientUnits="userSpaceOnUse">
<stop stop-color="#F46B45"/>
<stop offset="1" stop-color="#EEA849"/>
</linearGradient>
</defs>
</svg>
