<svg width="112" height="15" viewBox="0 0 112 15" fill="none" xmlns="http://www.w3.org/2000/svg">
<path d="M0 7.49C0 3.39 2.76 0.25 7.24 0.25C11.18 0.25 13.78 2.41 14.2 5.89H11C10.68 4.03 9.2 3.07 7.28 3.07C4.84 3.07 3.22 4.59 3.22 7.49C3.22 10.41 4.84 11.93 7.28 11.93C9.2 11.93 10.68 10.95 11 9.09H14.2C13.78 12.59 11.18 14.75 7.24 14.75C2.76 14.75 0 11.61 0 7.49Z" fill="url(#paint0_linear_365_2)"/>
<path d="M15.5859 7.49C15.5859 3.39 18.3059 0.25 22.7859 0.25C27.2459 0.25 29.9659 3.39 29.9659 7.49C29.9659 11.61 27.2459 14.75 22.7859 14.75C18.3059 14.75 15.5859 11.61 15.5859 7.49ZM18.8059 7.49C18.8059 10.21 20.1259 11.93 22.7859 11.93C25.4459 11.93 26.7659 10.21 26.7659 7.49C26.7659 4.79 25.4459 3.07 22.7859 3.07C20.1259 3.07 18.8059 4.79 18.8059 7.49Z" fill="url(#paint1_linear_365_2)"/>
<path d="M43.9868 10.67C43.9868 13.09 42.2868 14.75 37.9468 14.75C32.8668 14.75 30.9668 12.67 30.9668 9.11H34.1868C34.1868 11.25 35.2468 11.93 38.0468 11.93C40.1068 11.93 40.7868 11.47 40.7868 10.71C40.7868 9.69 39.0668 9.23 37.0068 8.53C34.0268 7.53 31.6068 6.73 31.6068 3.97C31.6068 1.57 33.5068 0.25 37.1468 0.25C41.4668 0.25 43.4068 2.45 43.4068 5.25H40.2068C40.2068 3.53 38.8868 3.07 37.1468 3.07C35.7068 3.07 34.8268 3.39 34.8268 4.09C34.8268 4.73 35.1468 4.97 37.4068 5.73C40.0068 6.61 43.9868 7.73 43.9868 10.67Z" fill="url(#paint2_linear_365_2)"/>
<path d="M48.8098 14.5492H45.5898V0.449219H51.9098L53.9498 13.7492H54.7698L56.8098 0.449219H63.1298V14.5492H59.9098V3.26922L60.5098 1.24922H59.7098L57.4698 14.5492H51.2498L49.0098 1.24922H48.1898L48.8098 3.26922V14.5492Z" fill="url(#paint3_linear_365_2)"/>
<path d="M64.7266 7.49C64.7266 3.39 67.4466 0.25 71.9266 0.25C76.3866 0.25 79.1066 3.39 79.1066 7.49C79.1066 11.61 76.3866 14.75 71.9266 14.75C67.4466 14.75 64.7266 11.61 64.7266 7.49ZM67.9466 7.49C67.9466 10.21 69.2666 11.93 71.9266 11.93C74.5866 11.93 75.9066 10.21 75.9066 7.49C75.9066 4.79 74.5866 3.07 71.9266 3.07C69.2666 3.07 67.9466 4.79 67.9466 7.49Z" fill="url(#paint4_linear_365_2)"/>
<path d="M100.859 14.5492H97.5996L96.3396 10.0292H90.6196L89.3596 14.5492H86.0996L90.1596 0.449219H96.7796L100.859 14.5492ZM93.0596 1.24922L91.3996 7.22922H95.5596L93.8796 1.24922H93.0596Z" fill="url(#paint5_linear_365_2)"/>
<path d="M111.886 0.449219V3.26922H108.686V11.7292H111.886V14.5492H102.266V11.7292H105.466V3.26922H102.266V0.449219H111.886Z" fill="url(#paint6_linear_365_2)"/>
<defs>
<linearGradient id="paint0_linear_365_2" x1="111.886" y1="0.909089" x2="14.6388" y2="46.1892" gradientUnits="userSpaceOnUse">
<stop stop-color="#F46B45"/>
<stop offset="1" stop-color="#EEA849"/>
</linearGradient>
<linearGradient id="paint1_linear_365_2" x1="111.886" y1="0.909092" x2="14.6388" y2="46.1892" gradientUnits="userSpaceOnUse">
<stop stop-color="#F46B45"/>
<stop offset="1" stop-color="#EEA849"/>
</linearGradient>
<linearGradient id="paint2_linear_365_2" x1="111.886" y1="0.90909" x2="14.6384" y2="46.1892" gradientUnits="userSpaceOnUse">
<stop stop-color="#F46B45"/>
<stop offset="1" stop-color="#EEA849"/>
</linearGradient>
<linearGradient id="paint3_linear_365_2" x1="111.885" y1="0.908312" x2="14.638" y2="46.1884" gradientUnits="userSpaceOnUse">
<stop stop-color="#F46B45"/>
<stop offset="1" stop-color="#EEA849"/>
</linearGradient>
<linearGradient id="paint4_linear_365_2" x1="111.886" y1="0.909092" x2="14.6388" y2="46.1892" gradientUnits="userSpaceOnUse">
<stop stop-color="#F46B45"/>
<stop offset="1" stop-color="#EEA849"/>
</linearGradient>
<linearGradient id="paint5_linear_365_2" x1="111.886" y1="0.908309" x2="14.6392" y2="46.1884" gradientUnits="userSpaceOnUse">
<stop stop-color="#F46B45"/>
<stop offset="1" stop-color="#EEA849"/>
</linearGradient>
<linearGradient id="paint6_linear_365_2" x1="111.886" y1="0.908312" x2="14.6384" y2="46.1884" gradientUnits="userSpaceOnUse">
<stop stop-color="#F46B45"/>
<stop offset="1" stop-color="#EEA849"/>
</linearGradient>
</defs>
</svg>