<svg width="366" height="214" viewBox="0 0 366 214" fill="none" xmlns="http://www.w3.org/2000/svg">
<path d="M259.643 103.119V110.574H258.413V104.184L258.608 103.479H258.263L254.963 110.574H252.473V103.119H253.703V109.494L253.508 110.229H253.853L257.153 103.119H259.643Z" fill="url(#paint0_linear_396_2)"/>
<path d="M250.592 103.119V110.574H249.362V104.184L249.557 103.479H249.212L245.912 110.574H243.422V103.119H244.652V109.494L244.457 110.229H244.802L248.102 103.119H250.592Z" fill="url(#paint1_linear_396_2)"/>
<path d="M239.83 109.524H240.925C241.495 109.524 241.825 109.839 241.825 110.424V112.554H240.595V110.574H233.65V103.119H234.88V109.524H238.585V103.119H239.83V109.524Z" fill="url(#paint2_linear_396_2)"/>
<path d="M224.459 108.506C224.459 107.321 225.164 106.511 226.904 106.331L229.874 106.046C229.799 104.681 229.064 104.006 227.774 104.006C226.694 104.006 225.689 104.501 225.689 105.896H224.489C224.489 104.351 225.659 102.971 227.774 102.971C229.859 102.971 231.104 104.351 231.104 106.346V109.526H232.199V110.576H230.879C230.324 110.576 229.994 110.261 229.994 109.706V109.301L230.189 108.521H229.829C229.544 109.661 228.749 110.726 226.949 110.726C224.774 110.726 224.459 109.286 224.459 108.506ZM225.689 108.356C225.689 109.211 226.244 109.676 227.099 109.676C228.794 109.676 229.874 108.506 229.874 106.961L227.114 107.246C226.169 107.336 225.689 107.621 225.689 108.356Z" fill="url(#paint3_linear_396_2)"/>
<path d="M214.9 113.306V103.121H216.13V104.216L215.935 105.071H216.28C216.595 103.901 217.6 102.971 219.295 102.971C221.455 102.971 222.85 104.636 222.85 106.856C222.85 109.061 221.455 110.726 219.295 110.726C217.6 110.726 216.595 109.796 216.28 108.641H215.935L216.13 109.496V113.306H214.9ZM216.13 106.856C216.13 108.836 217.405 109.676 218.935 109.676C220.48 109.676 221.62 108.806 221.62 106.856C221.62 104.891 220.48 104.036 218.935 104.036C217.405 104.036 216.13 104.876 216.13 106.856Z" fill="url(#paint4_linear_396_2)"/>
<path d="M205.855 106.751C205.855 104.351 207.355 102.971 209.47 102.971C211.57 102.971 212.95 104.306 212.95 106.601V107.081H207.07C207.145 108.491 207.805 109.691 209.65 109.691C210.88 109.691 211.705 109.091 211.975 107.966H213.205C212.935 109.121 212.02 110.726 209.65 110.726C206.98 110.726 205.855 108.896 205.855 106.751ZM207.07 106.151H211.735C211.735 104.966 210.955 104.006 209.47 104.006C208 104.006 207.07 104.966 207.07 106.151Z" fill="url(#paint5_linear_396_2)"/>
<path d="M202.883 106.314V103.119H204.113V110.574H202.883V107.364H198.683V110.574H197.453V103.119H198.683V106.314H202.883Z" fill="url(#paint6_linear_396_2)"/>
<path d="M188.408 106.751C188.408 104.351 189.908 102.971 192.023 102.971C194.123 102.971 195.503 104.306 195.503 106.601V107.081H189.623C189.698 108.491 190.358 109.691 192.203 109.691C193.433 109.691 194.258 109.091 194.528 107.966H195.758C195.488 109.121 194.573 110.726 192.203 110.726C189.533 110.726 188.408 108.896 188.408 106.751ZM189.623 106.151H194.288C194.288 104.966 193.508 104.006 192.023 104.006C190.553 104.006 189.623 104.966 189.623 106.151Z" fill="url(#paint7_linear_396_2)"/>
<path d="M183.816 110.574H182.586V103.119H187.791V104.184H183.816V110.574Z" fill="url(#paint8_linear_396_2)"/>
<path d="M175.867 103.119V104.184H173.062V110.574H171.832V104.184H169.012V103.119H175.867Z" fill="url(#paint9_linear_396_2)"/>
<path d="M161.471 108.506C161.471 107.321 162.176 106.511 163.916 106.331L166.886 106.046C166.811 104.681 166.076 104.006 164.786 104.006C163.706 104.006 162.701 104.501 162.701 105.896H161.501C161.501 104.351 162.671 102.971 164.786 102.971C166.871 102.971 168.116 104.351 168.116 106.346V109.526H169.211V110.576H167.891C167.336 110.576 167.006 110.261 167.006 109.706V109.301L167.201 108.521H166.841C166.556 109.661 165.761 110.726 163.961 110.726C161.786 110.726 161.471 109.286 161.471 108.506ZM162.701 108.356C162.701 109.211 163.256 109.676 164.111 109.676C165.806 109.676 166.886 108.506 166.886 106.961L164.126 107.246C163.181 107.336 162.701 107.621 162.701 108.356Z" fill="url(#paint10_linear_396_2)"/>
<path d="M160.617 103.119V104.184H157.812V110.574H156.582V104.184H153.762V103.119H160.617Z" fill="url(#paint11_linear_396_2)"/>
<path d="M149.216 105.249H150.761C152.531 105.249 153.956 105.834 153.956 107.919C153.956 110.004 152.531 110.574 150.761 110.574H147.986V103.119H149.216V105.249ZM149.216 106.314V109.524H150.611C151.871 109.524 152.726 109.359 152.726 107.919C152.726 106.464 151.871 106.314 150.611 106.314H149.216Z" fill="url(#paint12_linear_396_2)"/>
<path d="M145.794 103.119V110.574H144.564V104.184H141.654C141.639 108.264 141.429 110.574 138.984 110.574V109.524C140.439 109.524 140.424 107.349 140.424 103.119H145.794Z" fill="url(#paint13_linear_396_2)"/>
<path d="M135.21 108.909L137.55 103.119H138.885L135.645 110.499V112.569C135.645 113.154 135.315 113.499 134.625 113.469L131.73 113.334V112.284L134.415 112.404V110.499L131.16 103.119H132.51L134.865 108.909V109.494H135.21V108.909Z" fill="url(#paint14_linear_396_2)"/>
<path d="M123.887 107.666H125.102C125.102 109.241 125.627 109.751 127.082 109.751C128.387 109.751 128.807 109.271 128.807 108.356C128.807 107.516 128.372 107.126 127.472 107.126H126.467V106.136H127.472C128.372 106.136 128.657 105.746 128.657 105.056C128.657 104.396 128.327 103.961 127.022 103.961C125.567 103.961 125.252 104.441 125.252 105.446H124.037C124.037 103.886 125.012 102.971 127.022 102.971C128.897 102.971 129.857 103.826 129.857 104.921C129.857 105.866 129.287 106.331 128.357 106.451V106.811C129.287 106.931 130.007 107.426 130.007 108.491C130.007 109.856 128.957 110.726 127.082 110.726C125.072 110.726 123.887 109.796 123.887 107.666Z" fill="url(#paint15_linear_396_2)"/>
<path d="M114.801 106.751C114.801 104.351 116.301 102.971 118.416 102.971C120.516 102.971 121.896 104.306 121.896 106.601V107.081H116.016C116.091 108.491 116.751 109.691 118.596 109.691C119.826 109.691 120.651 109.091 120.921 107.966H122.151C121.881 109.121 120.966 110.726 118.596 110.726C115.926 110.726 114.801 108.896 114.801 106.751ZM116.016 106.151H120.681C120.681 104.966 119.901 104.006 118.416 104.006C116.946 104.006 116.016 104.966 116.016 106.151Z" fill="url(#paint16_linear_396_2)"/>
<path d="M109.325 100C111.995 100 113.69 100.69 113.69 103.45C113.69 106.225 111.995 106.93 109.325 106.93H107.585V110.575H106.355V100H109.325ZM107.585 105.865H109.34C111.14 105.865 112.46 105.55 112.46 103.45C112.46 101.38 111.14 101.05 109.34 101.05H107.585V105.865Z" fill="url(#paint17_linear_396_2)"/>
<defs>
<linearGradient id="paint0_linear_396_2" x1="252.473" y1="106.847" x2="259.643" y2="106.847" gradientUnits="userSpaceOnUse">
<stop stop-color="#D3CCE3"/>
<stop offset="1" stop-color="#E9E4F0"/>
</linearGradient>
<linearGradient id="paint1_linear_396_2" x1="243.422" y1="106.847" x2="250.592" y2="106.847" gradientUnits="userSpaceOnUse">
<stop stop-color="#D3CCE3"/>
<stop offset="1" stop-color="#E9E4F0"/>
</linearGradient>
<linearGradient id="paint2_linear_396_2" x1="233.65" y1="107.837" x2="241.825" y2="107.837" gradientUnits="userSpaceOnUse">
<stop stop-color="#D3CCE3"/>
<stop offset="1" stop-color="#E9E4F0"/>
</linearGradient>
<linearGradient id="paint3_linear_396_2" x1="224.459" y1="106.848" x2="232.199" y2="106.848" gradientUnits="userSpaceOnUse">
<stop stop-color="#D3CCE3"/>
<stop offset="1" stop-color="#E9E4F0"/>
</linearGradient>
<linearGradient id="paint4_linear_396_2" x1="214.9" y1="108.138" x2="222.85" y2="108.138" gradientUnits="userSpaceOnUse">
<stop stop-color="#D3CCE3"/>
<stop offset="1" stop-color="#E9E4F0"/>
</linearGradient>
<linearGradient id="paint5_linear_396_2" x1="205.855" y1="106.848" x2="213.205" y2="106.848" gradientUnits="userSpaceOnUse">
<stop stop-color="#D3CCE3"/>
<stop offset="1" stop-color="#E9E4F0"/>
</linearGradient>
<linearGradient id="paint6_linear_396_2" x1="197.453" y1="106.847" x2="204.113" y2="106.847" gradientUnits="userSpaceOnUse">
<stop stop-color="#D3CCE3"/>
<stop offset="1" stop-color="#E9E4F0"/>
</linearGradient>
<linearGradient id="paint7_linear_396_2" x1="188.408" y1="106.848" x2="195.758" y2="106.848" gradientUnits="userSpaceOnUse">
<stop stop-color="#D3CCE3"/>
<stop offset="1" stop-color="#E9E4F0"/>
</linearGradient>
<linearGradient id="paint8_linear_396_2" x1="182.586" y1="106.847" x2="187.791" y2="106.847" gradientUnits="userSpaceOnUse">
<stop stop-color="#D3CCE3"/>
<stop offset="1" stop-color="#E9E4F0"/>
</linearGradient>
<linearGradient id="paint9_linear_396_2" x1="169.012" y1="106.847" x2="175.867" y2="106.847" gradientUnits="userSpaceOnUse">
<stop stop-color="#D3CCE3"/>
<stop offset="1" stop-color="#E9E4F0"/>
</linearGradient>
<linearGradient id="paint10_linear_396_2" x1="161.471" y1="106.848" x2="169.211" y2="106.848" gradientUnits="userSpaceOnUse">
<stop stop-color="#D3CCE3"/>
<stop offset="1" stop-color="#E9E4F0"/>
</linearGradient>
<linearGradient id="paint11_linear_396_2" x1="153.762" y1="106.847" x2="160.617" y2="106.847" gradientUnits="userSpaceOnUse">
<stop stop-color="#D3CCE3"/>
<stop offset="1" stop-color="#E9E4F0"/>
</linearGradient>
<linearGradient id="paint12_linear_396_2" x1="147.986" y1="106.847" x2="153.956" y2="106.847" gradientUnits="userSpaceOnUse">
<stop stop-color="#D3CCE3"/>
<stop offset="1" stop-color="#E9E4F0"/>
</linearGradient>
<linearGradient id="paint13_linear_396_2" x1="138.984" y1="106.847" x2="145.794" y2="106.847" gradientUnits="userSpaceOnUse">
<stop stop-color="#D3CCE3"/>
<stop offset="1" stop-color="#E9E4F0"/>
</linearGradient>
<linearGradient id="paint14_linear_396_2" x1="131.16" y1="108.295" x2="138.885" y2="108.295" gradientUnits="userSpaceOnUse">
<stop stop-color="#D3CCE3"/>
<stop offset="1" stop-color="#E9E4F0"/>
</linearGradient>
<linearGradient id="paint15_linear_396_2" x1="123.887" y1="106.848" x2="130.007" y2="106.848" gradientUnits="userSpaceOnUse">
<stop stop-color="#D3CCE3"/>
<stop offset="1" stop-color="#E9E4F0"/>
</linearGradient>
<linearGradient id="paint16_linear_396_2" x1="114.801" y1="106.848" x2="122.151" y2="106.848" gradientUnits="userSpaceOnUse">
<stop stop-color="#D3CCE3"/>
<stop offset="1" stop-color="#E9E4F0"/>
</linearGradient>
<linearGradient id="paint17_linear_396_2" x1="106.355" y1="105.288" x2="113.69" y2="105.288" gradientUnits="userSpaceOnUse">
<stop stop-color="#D3CCE3"/>
<stop offset="1" stop-color="#E9E4F0"/>
</linearGradient>
</defs>
</svg>
