<?xml version="1.0" standalone="no"?>
<!DOCTYPE svg PUBLIC "-//W3C//DTD SVG 20010904//EN"
 "http://www.w3.org/TR/2001/REC-SVG-20010904/DTD/svg10.dtd">
<svg version="1.0" xmlns="http://www.w3.org/2000/svg"
 width="1000.000000pt" height="1000.000000pt" viewBox="0 0 1000.000000 1000.000000"
 preserveAspectRatio="xMidYMid meet">
<metadata>
Created by potrace 1.14, written by Peter Selinger 2001-2017
</metadata>
<g transform="translate(0.000000,1000.000000) scale(0.100000,-0.100000)"
fill="#000000" stroke="none">
<path d="M1649 9996 c-2 -2 -33 -7 -69 -10 -301 -30 -663 -183 -910 -385 -67
-54 -236 -223 -270 -269 -14 -19 -35 -46 -46 -60 -12 -15 -41 -58 -66 -97
-150 -234 -239 -484 -278 -775 -5 -36 -9 -1570 -9 -3410 0 -3201 1 -3350 19
-3455 22 -133 33 -180 60 -265 168 -520 524 -914 1020 -1128 111 -48 257 -92
356 -108 21 -3 41 -7 44 -9 28 -17 578 -20 3505 -20 2984 0 3433 3 3495 20 8
2 29 7 45 9 63 11 92 18 170 42 297 91 541 237 755 453 120 121 145 151 226
272 149 224 227 424 290 754 5 22 9 1559 10 3415 3 3569 5 3403 -41 3629 -23
119 -107 342 -172 459 -145 263 -364 498 -611 657 -71 46 -277 152 -310 161
-9 2 -57 18 -106 34 -49 17 -121 38 -160 46 -74 15 -88 18 -196 33 -62 9
-6742 16 -6751 7z"/>
</g>
</svg>
