<svg width="30" height="30" viewBox="0 0 30 30" xmlns="http://www.w3.org/2000/svg"><path d="M5.98226 15.7941H18.1588V14.2059H5.98226L7.86048 12.2796L6.77258 11.1313L3.00039 15L6.77258 18.8687L7.86048 17.7204L5.98226 15.7941ZM11.3191 11.6809V7.91409C11.3191 7.81897 11.3488 7.74088 11.4084 7.67982C11.4681 7.61877 11.5442 7.58824 11.6368 7.58824H21.534C21.6268 7.58824 21.7029 7.61877 21.7625 7.67982C21.822 7.74088 21.8518 7.81897 21.8518 7.91409V22.0859C21.8518 22.181 21.822 22.2591 21.7625 22.3202C21.7029 22.3812 21.6268 22.4118 21.534 22.4118H11.6368C11.5442 22.4118 11.4681 22.3812 11.4084 22.3202C11.3488 22.2591 11.3191 22.181 11.3191 22.0859V18.3191H9.77045V22.0859C9.77045 22.6139 9.95284 23.065 10.3176 23.4391C10.6822 23.813 11.122 24 11.6368 24H21.534C22.0489 24 22.4887 23.813 22.8535 23.4391C23.2181 23.065 23.4004 22.6139 23.4004 22.0859V7.91409C23.4004 7.38609 23.2181 6.93503 22.8535 6.56091C22.4887 6.18697 22.0489 6 21.534 6H11.6368C11.122 6 10.6822 6.18697 10.3176 6.56091C9.95284 6.93503 9.77045 7.38609 9.77045 7.91409V11.6809H11.3191Z"/></svg>