<?xml version="1.0" encoding="utf-8"?><svg viewBox="0 0 30 30" xmlns="http://www.w3.org/2000/svg" xmlns:xlink="http://www.w3.org/1999/xlink"><style>:root>svg{display:none}:root>svg:target{display:block}</style><svg viewBox="0 0 24 24" id="arrow-type-1" xmlns="http://www.w3.org/2000/svg"><path d="M11.5 6.692v9.892l-4.1-4.1-.709.708L12 18.5l5.308-5.308-.708-.707-4.1 4.1V6.691h-1z"/></svg><svg viewBox="0 0 24 24" id="arrow-type-2" xmlns="http://www.w3.org/2000/svg"><path d="M21.307 16L11.999 6.69 2.691 16l1.064 1.064 8.244-8.245 8.244 8.245 1.064-1.064z"/></svg><svg viewBox="0 0 30 30" id="close" xmlns="http://www.w3.org/2000/svg"><path fill-rule="evenodd" clip-rule="evenodd" d="M6.952 6.951a1.2 1.2 0 011.697 0L15 13.303l6.352-6.352a1.2 1.2 0 111.697 1.698L16.697 15l6.352 6.352a1.2 1.2 0 11-1.697 1.697L15 16.697 8.65 23.05a1.2 1.2 0 11-1.697-1.697L13.303 15 6.952 8.649a1.2 1.2 0 010-1.698z"/></svg><svg viewBox="0 0 15 15" id="copy" xmlns="http://www.w3.org/2000/svg"><path d="M5.661 10.938a1.09 1.09 0 01-.802-.329 1.09 1.09 0 01-.328-.801V2.692c0-.315.11-.583.328-.801a1.09 1.09 0 01.802-.329h5.24c.316 0 .583.11.802.329.219.218.328.486.328.801v7.116c0 .315-.11.583-.328.801a1.09 1.09 0 01-.802.329h-5.24zm0-.938h5.24c.049 0 .093-.02.133-.06.04-.04.06-.084.06-.132V2.692a.184.184 0 00-.06-.132.184.184 0 00-.133-.06h-5.24a.183.183 0 00-.132.06.183.183 0 00-.06.132v7.116c0 .048.02.092.06.132.04.04.084.06.132.06zm-2.187 3.125a1.09 1.09 0 01-.802-.328 1.09 1.09 0 01-.328-.802V3.942h.937v8.053c0 .048.02.092.06.132.04.04.084.06.133.06H9.65v.938H3.474z"/></svg><svg viewBox="0 0 15 15" id="dislike" xmlns="http://www.w3.org/2000/svg"><path d="M11.082 2.188H4.507v7.5l4.147 4.122.529-.528a.758.758 0 00.161-.258.816.816 0 00.065-.302v-.159l-.664-2.875h4.188c.297 0 .56-.114.787-.342.228-.228.342-.49.342-.788v-1.01a.964.964 0 00-.025-.21 2.422 2.422 0 00-.056-.21L12.19 2.902c-.09-.2-.24-.37-.45-.507a1.185 1.185 0 00-.658-.207zm-5.637.938h5.637a.29.29 0 01.135.036.233.233 0 01.105.12L13.125 7.5v1.057a.187.187 0 01-.054.138.187.187 0 01-.138.055H7.56l.784 3.425-2.9-2.887V3.126zm-.938 6.562v-.937H2.5V3.126h2.007v-.938H1.563v7.5h2.944z"/></svg><svg viewBox="0 0 30 30" id="exit" xmlns="http://www.w3.org/2000/svg"><path d="M5.982 15.794H18.16v-1.588H5.982L7.86 12.28 6.773 11.13 3 15l3.773 3.869L7.86 17.72l-1.878-1.926zm5.337-4.113V7.914c0-.095.03-.173.09-.234a.306.306 0 01.228-.092h9.897c.093 0 .169.03.229.092.059.06.089.139.089.234v14.172c0 .095-.03.173-.09.234a.306.306 0 01-.228.092h-9.897a.306.306 0 01-.229-.092.322.322 0 01-.089-.234v-3.767H9.77v3.767c0 .528.183.979.548 1.353.364.374.804.561 1.319.561h9.897c.515 0 .955-.187 1.32-.56.364-.375.546-.826.546-1.354V7.914c0-.528-.182-.979-.546-1.353A1.776 1.776 0 0021.534 6h-9.897c-.515 0-.955.187-1.32.56a1.868 1.868 0 00-.547 1.354v3.767h1.55z"/></svg><svg viewBox="0 0 15 15" id="like" xmlns="http://www.w3.org/2000/svg"><path d="M11.082 12.812H4.507v-7.5l4.147-4.123.529.53c.065.064.118.15.161.257a.815.815 0 01.065.302v.159l-.664 2.875h4.188c.297 0 .56.114.787.342.228.228.342.49.342.788v1.01a.964.964 0 01-.025.21 2.422 2.422 0 01-.056.21l-1.791 4.226c-.09.2-.24.37-.45.507-.212.138-.43.207-.658.207zm-5.637-.938h5.637c.044 0 .089-.012.135-.036a.233.233 0 00.105-.12L13.125 7.5V6.442a.187.187 0 00-.054-.138.187.187 0 00-.138-.055H7.56l.784-3.425-2.9 2.887v6.163zm-.938-6.562v.937H2.5v5.625h2.007v.938H1.563v-7.5h2.944z"/></svg><svg viewBox="0 0 30 30" id="menu-open" xmlns="http://www.w3.org/2000/svg"><path d="M6 10h18v2H6v-2zM6 14h13v2H6v-2zM6 18h18v2H6v-2z"/></svg><svg viewBox="0 0 24 24" id="minus" xmlns="http://www.w3.org/2000/svg"><path d="M18.5 12.5V11h-13v1.5h13z"/></svg><svg viewBox="0 0 24 24" id="plus" xmlns="http://www.w3.org/2000/svg"><path d="M12.25 11.25V5.5h-1.5v5.75H5v1.5h5.75v5.75h1.5v-5.75H18v-1.5h-5.75z"/></svg><svg viewBox="0 0 30 30" id="profile" xmlns="http://www.w3.org/2000/svg"><path d="M7.45 21.685a13.785 13.785 0 013.51-1.887 11.702 11.702 0 014.04-.693c1.428 0 2.775.231 4.04.692a13.786 13.786 0 013.51 1.888 9.957 9.957 0 001.866-2.997c.46-1.136.69-2.365.69-3.688 0-2.8-.985-5.184-2.953-7.153C20.184 5.88 17.8 4.895 15 4.895s-5.184.984-7.153 2.952C5.88 9.816 4.895 12.2 4.895 15c0 1.323.23 2.552.688 3.688a9.959 9.959 0 001.867 2.997zM15 15.947c-1.153 0-2.126-.395-2.917-1.187-.792-.792-1.188-1.764-1.188-2.918 0-1.153.396-2.125 1.187-2.917.792-.792 1.764-1.188 2.918-1.188 1.153 0 2.125.396 2.917 1.187.792.792 1.188 1.764 1.188 2.918 0 1.153-.396 2.126-1.187 2.917-.792.792-1.764 1.188-2.918 1.188zM15 27c-1.666 0-3.23-.313-4.69-.94A12.048 12.048 0 016.5 23.5a12.048 12.048 0 01-2.56-3.81C3.313 18.23 3 16.665 3 15c0-1.666.313-3.23.94-4.69.627-1.46 1.48-2.73 2.56-3.81a12.048 12.048 0 013.81-2.56C11.77 3.313 13.334 3 15 3c1.666 0 3.23.313 4.69.94 1.46.627 2.73 1.48 3.81 2.56a12.048 12.048 0 012.56 3.81c.627 1.46.94 3.024.94 4.69 0 1.666-.313 3.23-.94 4.69a12.047 12.047 0 01-2.56 3.81 12.047 12.047 0 01-3.81 2.56c-1.46.627-3.024.94-4.69.94zm0-1.895a10 10 0 003.297-.55 9.36 9.36 0 002.82-1.539 9.6 9.6 0 00-2.783-1.484A10.209 10.209 0 0015 21c-1.189 0-2.302.175-3.34.526a9.16 9.16 0 00-2.777 1.49 9.36 9.36 0 002.82 1.54 10 10 0 003.297.55zm0-11.052c.628 0 1.154-.212 1.576-.635.423-.422.634-.947.634-1.576 0-.628-.21-1.154-.634-1.576-.422-.423-.948-.634-1.576-.634-.628 0-1.154.211-1.576.634-.423.422-.634.948-.634 1.576 0 .628.21 1.154.634 1.576.422.423.948.635 1.576.635z"/></svg><svg viewBox="0 0 15 15" id="refresh" xmlns="http://www.w3.org/2000/svg"><path d="M7.5 2.5c-1.396 0-2.578.484-3.547 1.453C2.984 4.922 2.5 6.104 2.5 7.5c0 1.396.484 2.578 1.453 3.547.969.969 2.151 1.453 3.547 1.453.719 0 1.406-.148 2.063-.445a4.764 4.764 0 001.687-1.274V12.5h1.25V8.125H8.125v1.25h2.625a3.647 3.647 0 01-1.367 1.375c-.578.333-1.206.5-1.883.5-1.042 0-1.927-.365-2.656-1.094C4.114 9.427 3.75 8.542 3.75 7.5s.365-1.927 1.094-2.656C5.573 4.114 6.458 3.75 7.5 3.75c.802 0 1.526.23 2.172.688a3.63 3.63 0 011.36 1.812h1.312a4.935 4.935 0 00-1.781-2.703A4.85 4.85 0 007.5 2.5z"/></svg><svg viewBox="0 0 15 15" id="zoom-in" xmlns="http://www.w3.org/2000/svg"><path d="M12.764 13.5L8.381 9.116a3.99 3.99 0 01-1.205.676 4.137 4.137 0 01-1.408.245c-1.193 0-2.202-.413-3.029-1.24C1.913 7.973 1.5 6.963 1.5 5.77c0-1.192.413-2.202 1.24-3.029.825-.827 1.835-1.24 3.027-1.24 1.193 0 2.203.413 3.03 1.24.826.826 1.24 1.835 1.24 3.028 0 .499-.084.975-.251 1.429-.167.453-.39.848-.67 1.183l4.384 4.384-.736.736zM5.768 8.99c.9 0 1.662-.312 2.286-.936.624-.625.936-1.386.936-2.286 0-.899-.312-1.66-.936-2.285-.624-.624-1.386-.936-2.286-.936-.899 0-1.66.312-2.285.936-.624.624-.936 1.386-.936 2.285 0 .9.312 1.661.936 2.286.624.624 1.386.936 2.285.936zm-.523-1.342V6.292H3.889V5.245h1.356V3.889h1.047v1.356h1.356v1.047H6.292v1.356H5.245z"/></svg></svg>