<svg width="15" height="15" viewBox="0 0 15 15" xmlns="http://www.w3.org/2000/svg"><path d="M11.0817 12.812H4.50719V5.31195L8.65391 1.18945L9.18266 1.7182C9.24755 1.7831 9.30146 1.86904 9.34437 1.97602C9.38719 2.083 9.40859 2.18378 9.40859 2.27836V2.43695L8.74516 5.31195H12.9327C13.2299 5.31195 13.4926 5.42596 13.7205 5.65399C13.9485 5.8819 14.0625 6.14451 14.0625 6.4418V7.45133C14.0625 7.51622 14.0541 7.58633 14.0372 7.66164C14.0204 7.73695 14.0016 7.80711 13.9808 7.87211L12.1898 12.098C12.1002 12.2984 11.9499 12.4674 11.7392 12.6052C11.5285 12.743 11.3093 12.812 11.0817 12.812ZM5.44469 11.8745H11.0817C11.1258 11.8745 11.1708 11.8624 11.2169 11.8384C11.263 11.8143 11.2981 11.7742 11.3222 11.7182L13.125 7.49945V6.4418C13.125 6.38565 13.107 6.33956 13.0709 6.30352C13.0349 6.26748 12.9888 6.24945 12.9327 6.24945H7.56016L8.34375 2.82399L5.44469 5.71102V11.8745ZM4.50719 5.31195V6.24945H2.5V11.8745H4.50719V12.812H1.5625V5.31195H4.50719Z"/></svg>