<svg width="30" height="30" viewBox="0 0 30 30" xmlns="http://www.w3.org/2000/svg"><path d="M7.45011 21.6849C8.52379 20.8883 9.69347 20.2592 10.9592 19.7975C12.2246 19.336 13.5716 19.1053 15 19.1053C16.4284 19.1053 17.7754 19.336 19.0408 19.7975C20.3065 20.2592 21.4762 20.8883 22.5499 21.6849C23.3352 20.8218 23.9574 19.8226 24.4165 18.6875C24.8757 17.5523 25.1053 16.3232 25.1053 15C25.1053 12.2 24.1211 9.81579 22.1526 7.84737C20.1842 5.87895 17.8 4.89474 15 4.89474C12.2 4.89474 9.81579 5.87895 7.84737 7.84737C5.87895 9.81579 4.89474 12.2 4.89474 15C4.89474 16.3232 5.12432 17.5523 5.58347 18.6875C6.04263 19.8226 6.66484 20.8218 7.45011 21.6849ZM15.0003 15.9474C13.8471 15.9474 12.8745 15.5516 12.0827 14.76C11.2907 13.9682 10.8947 12.9957 10.8947 11.8424C10.8947 10.6892 11.2905 9.71663 12.0821 8.92484C12.8739 8.13284 13.8464 7.73684 14.9997 7.73684C16.1529 7.73684 17.1255 8.13263 17.9173 8.92421C18.7093 9.716 19.1053 10.6885 19.1053 11.8418C19.1053 12.9951 18.7095 13.9676 17.9179 14.7594C17.1261 15.5514 16.1536 15.9474 15.0003 15.9474ZM15 27C13.3337 27 11.7705 26.6866 10.3105 26.0599C8.85053 25.4332 7.58053 24.5797 6.50053 23.4995C5.42032 22.4195 4.56684 21.1495 3.94011 19.6895C3.31337 18.2295 3 16.6663 3 15C3 13.3337 3.31337 11.7705 3.94011 10.3105C4.56684 8.85053 5.42032 7.58053 6.50053 6.50053C7.58053 5.42032 8.85053 4.56684 10.3105 3.94011C11.7705 3.31337 13.3337 3 15 3C16.6663 3 18.2295 3.31337 19.6895 3.94011C21.1495 4.56684 22.4195 5.42032 23.4995 6.50053C24.5797 7.58053 25.4332 8.85053 26.0599 10.3105C26.6866 11.7705 27 13.3337 27 15C27 16.6663 26.6866 18.2295 26.0599 19.6895C25.4332 21.1495 24.5797 22.4195 23.4995 23.4995C22.4195 24.5797 21.1495 25.4332 19.6895 26.0599C18.2295 26.6866 16.6663 27 15 27ZM15 25.1053C16.14 25.1053 17.2392 24.9219 18.2975 24.5552C19.3558 24.1882 20.2955 23.6753 21.1165 23.0163C20.2955 22.3814 19.368 21.8866 18.3341 21.5321C17.3 21.1774 16.1886 21 15 21C13.8114 21 12.698 21.1753 11.6599 21.5258C10.6218 21.8765 9.69632 22.3734 8.88347 23.0163C9.70453 23.6753 10.6442 24.1882 11.7025 24.5552C12.7608 24.9219 13.86 25.1053 15 25.1053ZM15 14.0526C15.6284 14.0526 16.1539 13.8413 16.5764 13.4185C16.9992 12.996 17.2105 12.4705 17.2105 11.8421C17.2105 11.2137 16.9992 10.6882 16.5764 10.2657C16.1539 9.84295 15.6284 9.63158 15 9.63158C14.3716 9.63158 13.8461 9.84295 13.4236 10.2657C13.0008 10.6882 12.7895 11.2137 12.7895 11.8421C12.7895 12.4705 13.0008 12.996 13.4236 13.4185C13.8461 13.8413 14.3716 14.0526 15 14.0526Z"/></svg>