<svg width="15" height="15" viewBox="0 0 15 15" xmlns="http://www.w3.org/2000/svg"><path d="M5.66109 10.9375C5.34536 10.9375 5.07812 10.8281 4.85938 10.6094C4.64062 10.3906 4.53125 10.1234 4.53125 9.80766V2.69234C4.53125 2.37661 4.64062 2.10938 4.85938 1.89063C5.07812 1.67188 5.34536 1.5625 5.66109 1.5625H10.9014C11.2171 1.5625 11.4844 1.67188 11.7031 1.89063C11.9219 2.10938 12.0312 2.37661 12.0312 2.69234V9.80766C12.0312 10.1234 11.9219 10.3906 11.7031 10.6094C11.4844 10.8281 11.2171 10.9375 10.9014 10.9375H5.66109ZM5.66109 10H10.9014C10.9495 10 10.9936 9.97995 11.0336 9.93984C11.0737 9.89984 11.0938 9.85578 11.0938 9.80766V2.69234C11.0938 2.64422 11.0737 2.60016 11.0336 2.56016C10.9936 2.52005 10.9495 2.5 10.9014 2.5H5.66109C5.61297 2.5 5.56891 2.52005 5.52891 2.56016C5.4888 2.60016 5.46875 2.64422 5.46875 2.69234V9.80766C5.46875 9.85578 5.4888 9.89984 5.52891 9.93984C5.56891 9.97995 5.61297 10 5.66109 10ZM3.47359 13.125C3.15786 13.125 2.89063 13.0156 2.67188 12.7969C2.45313 12.5781 2.34375 12.3109 2.34375 11.9952V3.94234H3.28125V11.9952C3.28125 12.0433 3.3013 12.0873 3.34141 12.1273C3.38141 12.1674 3.42547 12.1875 3.47359 12.1875H9.65141V13.125H3.47359Z"/></svg>