<svg width="15" height="15" viewBox="0 0 15 15" xmlns="http://www.w3.org/2000/svg"><path d="M11.0817 2.18805H4.50719V9.68805L8.65391 13.8105L9.18266 13.2818C9.24755 13.2169 9.30146 13.131 9.34437 13.024C9.38719 12.917 9.40859 12.8162 9.40859 12.7216V12.563L8.74516 9.68805H12.9327C13.2299 9.68805 13.4926 9.57404 13.7205 9.34601C13.9485 9.1181 14.0625 8.85549 14.0625 8.5582V7.54867C14.0625 7.48378 14.0541 7.41367 14.0372 7.33836C14.0204 7.26305 14.0016 7.19289 13.9808 7.12789L12.1898 2.90195C12.1002 2.70164 11.9499 2.53258 11.7392 2.39476C11.5285 2.25695 11.3093 2.18805 11.0817 2.18805ZM5.44469 3.12555H11.0817C11.1258 3.12555 11.1708 3.13758 11.2169 3.16164C11.263 3.1857 11.2981 3.22575 11.3222 3.2818L13.125 7.50055V8.5582C13.125 8.61435 13.107 8.66044 13.0709 8.69648C13.0349 8.73252 12.9888 8.75055 12.9327 8.75055H7.56016L8.34375 12.176L5.44469 9.28898V3.12555ZM4.50719 9.68805V8.75055H2.5V3.12555H4.50719V2.18805H1.5625V9.68805H4.50719Z"/></svg>