<svg width="15" height="15" viewBox="0 0 15 15" xmlns="http://www.w3.org/2000/svg"><path d="M7.5 2.5C6.10417 2.5 4.92188 2.98437 3.95312 3.95312C2.98437 4.92188 2.5 6.10417 2.5 7.5C2.5 8.89583 2.98437 10.0781 3.95312 11.0469C4.92188 12.0156 6.10417 12.5 7.5 12.5C8.21875 12.5 8.90625 12.3516 9.5625 12.0547C10.2188 11.7578 10.7812 11.3333 11.25 10.7812V12.5H12.5V8.125H8.125V9.375H10.75C10.4167 9.95833 9.96094 10.4167 9.38281 10.75C8.80469 11.0833 8.17708 11.25 7.5 11.25C6.45833 11.25 5.57292 10.8854 4.84375 10.1562C4.11458 9.42708 3.75 8.54167 3.75 7.5C3.75 6.45833 4.11458 5.57292 4.84375 4.84375C5.57292 4.11458 6.45833 3.75 7.5 3.75C8.30208 3.75 9.02604 3.97917 9.67188 4.4375C10.3177 4.89583 10.7708 5.5 11.0312 6.25H12.3438C12.0521 5.14583 11.4583 4.24479 10.5625 3.54688C9.66667 2.84896 8.64583 2.5 7.5 2.5Z"/></svg>