<svg width="15" height="15" viewBox="0 0 15 15" xmlns="http://www.w3.org/2000/svg"><path d="M12.7645 13.5L8.38053 9.11593C8.03153 9.40408 7.63018 9.62959 7.17648 9.79246C6.72278 9.95532 6.25343 10.0368 5.76844 10.0368C4.57544 10.0368 3.56579 9.62372 2.73947 8.79765C1.91316 7.97158 1.5 6.96217 1.5 5.76942C1.5 4.57679 1.91304 3.56704 2.73912 2.74015C3.5652 1.91338 4.57463 1.5 5.76739 1.5C6.96004 1.5 7.96981 1.91315 8.79671 2.73945C9.62349 3.56576 10.0369 4.5754 10.0369 5.76838C10.0369 6.26686 9.95323 6.74294 9.78595 7.19664C9.61854 7.65033 9.39524 8.04493 9.11604 8.38043L13.5 12.7643L12.7645 13.5ZM5.76844 8.98994C6.66781 8.98994 7.42956 8.67783 8.05369 8.05359C8.67793 7.42947 8.99005 6.66774 8.99005 5.76838C8.99005 4.86902 8.67793 4.10728 8.05369 3.48316C7.42956 2.85893 6.66781 2.54681 5.76844 2.54681C4.86907 2.54681 4.10732 2.85893 3.48319 3.48316C2.85895 4.10728 2.54682 4.86902 2.54682 5.76838C2.54682 6.66774 2.85895 7.42947 3.48319 8.05359C4.10732 8.67783 4.86907 8.98994 5.76844 8.98994ZM5.24494 7.64754V6.29187H3.88925V5.24488H5.24494V3.88922H6.29194V5.24488H7.64763V6.29187H6.29194V7.64754H5.24494Z"/></svg>