<svg width="50" height="50" viewBox="0 0 50 50" fill="none" xmlns="http://www.w3.org/2000/svg">
<path d="M31.4699 10.5173C30.8751 10.5173 30.3727 10.3119 29.9626 9.90117C29.5526 9.49041 29.3475 8.98763 29.3475 8.39284C29.3475 7.79805 29.5529 7.29562 29.9637 6.88555C30.3744 6.47582 30.8772 6.27096 31.472 6.27096C32.0668 6.27096 32.5692 6.47634 32.9793 6.88711C33.3894 7.29752 33.5944 7.8003 33.5944 8.39544C33.5944 8.99023 33.389 9.49266 32.9783 9.90273C32.5675 10.3125 32.0647 10.5173 31.4699 10.5173ZM31.4095 43.7303C30.8147 43.7303 30.3125 43.525 29.9027 43.1142C29.4927 42.7038 29.2876 42.201 29.2876 41.6059C29.2876 41.0111 29.493 40.5086 29.9038 40.0986C30.3145 39.6888 30.8173 39.484 31.4121 39.484C32.0069 39.484 32.5093 39.6894 32.9194 40.1001C33.3291 40.5109 33.534 41.0137 33.534 41.6085C33.534 42.2033 33.3288 42.7057 32.9184 43.1158C32.5076 43.5255 32.0046 43.7303 31.4095 43.7303ZM39.7428 17.5689C39.148 17.5689 38.6458 17.3635 38.2361 16.9527C37.826 16.542 37.621 16.0392 37.621 15.4444C37.621 14.8496 37.8263 14.3472 38.2371 13.9371C38.6479 13.527 39.1506 13.322 39.7454 13.322C40.3402 13.322 40.8427 13.5274 41.2527 13.9381C41.6625 14.3489 41.8673 14.8517 41.8673 15.4465C41.8673 16.0413 41.6621 16.5437 41.2517 16.9538C40.8409 17.3638 40.338 17.5689 39.7428 17.5689ZM39.6829 36.7392C39.0882 36.7392 38.5857 36.5338 38.1757 36.123C37.7656 35.7126 37.5605 35.2098 37.5605 34.6147C37.5605 34.0199 37.7659 33.5175 38.1767 33.1074C38.5875 32.6977 39.0902 32.4928 39.685 32.4928C40.2802 32.4928 40.7826 32.6982 41.1923 33.109C41.6024 33.5194 41.8074 34.0222 41.8074 34.6173C41.8074 35.2121 41.602 35.7145 41.1913 36.1246C40.7805 36.5343 40.2777 36.7392 39.6829 36.7392ZM42.6678 27.1241C42.073 27.1241 41.5706 26.9187 41.1605 26.5079C40.7505 26.0972 40.5454 25.5944 40.5454 24.9996C40.5454 24.4048 40.7508 23.9024 41.1616 23.4923C41.5724 23.0822 42.0751 22.8772 42.6699 22.8772C43.2647 22.8772 43.7671 23.0826 44.1772 23.4934C44.5873 23.9041 44.7923 24.4069 44.7923 25.0017C44.7923 25.5965 44.5869 26.0989 44.1762 26.509C43.7654 26.9191 43.2626 27.1241 42.6678 27.1241ZM25.0007 44.7923C22.2656 44.7923 19.6937 44.2729 17.285 43.234C14.8763 42.1951 12.7812 40.7852 10.9996 39.0043C9.21801 37.2234 7.80742 35.1291 6.76784 32.7215C5.7286 30.3138 5.20898 27.7414 5.20898 25.0043C5.20898 22.2668 5.7286 19.6937 6.76784 17.285C7.80673 14.8763 9.2168 12.7812 10.998 10.9996C12.7793 9.21801 14.8739 7.80742 17.2819 6.76784C19.6899 5.7286 22.2628 5.20898 25.0007 5.20898V8.33398C20.3479 8.33398 16.4069 9.94857 13.1777 13.1777C9.94857 16.4069 8.33398 20.3479 8.33398 25.0007C8.33398 29.6534 9.94857 33.5944 13.1777 36.8236C16.4069 40.0527 20.3479 41.6673 25.0007 41.6673V44.7923ZM25.0007 28.6465C23.9885 28.6465 23.1277 28.292 22.4184 27.5829C21.7093 26.8736 21.3548 26.0128 21.3548 25.0007C21.3548 24.7871 21.3703 24.5781 21.4012 24.3736C21.4317 24.1694 21.4951 23.9737 21.5913 23.7866L17.4085 19.584L19.584 17.4085L23.7866 21.5913C23.939 21.5298 24.3437 21.451 25.0007 21.3548C26.0128 21.3548 26.8736 21.7093 27.5829 22.4184C28.292 23.1277 28.6465 23.9885 28.6465 25.0007C28.6465 26.0128 28.292 26.8736 27.5829 27.5829C26.8736 28.292 26.0128 28.6465 25.0007 28.6465Z" fill="url(#paint0_linear_374_129)"/>
<defs>
<linearGradient id="paint0_linear_374_129" x1="44.7923" y1="7.00823" x2="3.08087" y2="9.52522" gradientUnits="userSpaceOnUse">
<stop stop-color="#F46B45"/>
<stop offset="1" stop-color="#EEA849"/>
</linearGradient>
</defs>
</svg>
