<svg width="20" height="20" viewBox="0 0 20 20" fill="none" xmlns="http://www.w3.org/2000/svg">
<g clip-path="url(#clip0_381_747)">
<path d="M19.8042 10.2292C19.8042 9.54941 19.7491 8.86599 19.6315 8.19727H10.1992V12.048H15.6007C15.3765 13.2899 14.6563 14.3885 13.6018 15.0866V17.5851H16.8243C18.7166 15.8435 19.8042 13.2715 19.8042 10.2292Z" fill="url(#paint0_linear_381_747)"/>
<path d="M10.1999 19.9995C12.897 19.9995 15.1714 19.114 16.8286 17.5855L13.6061 15.087C12.7096 15.6969 11.5521 16.0423 10.2036 16.0423C7.59474 16.0423 5.38272 14.2823 4.58904 11.916H1.26367V14.4917C2.96127 17.8684 6.41892 19.9995 10.1999 19.9995V19.9995Z" fill="url(#paint1_linear_381_747)"/>
<path d="M4.58467 11.9161C4.16578 10.6741 4.16578 9.32934 4.58467 8.08742V5.51172H1.26297C-0.155365 8.33727 -0.155365 11.6662 1.26297 14.4918L4.58467 11.9161V11.9161Z" fill="url(#paint2_linear_381_747)"/>
<path d="M10.1999 3.95791C11.6256 3.93587 13.0035 4.47232 14.036 5.45704L16.8911 2.60209C15.0833 0.904556 12.6838 -0.0287207 10.1999 0.000673865C6.41892 0.000673865 2.96126 2.13178 1.26367 5.51215L4.58537 8.08785C5.37537 5.71791 7.59106 3.95791 10.1999 3.95791V3.95791Z" fill="url(#paint3_linear_381_747)"/>
</g>
<defs>
<linearGradient id="paint0_linear_381_747" x1="10.1992" y1="12.8912" x2="19.8042" y2="12.8912" gradientUnits="userSpaceOnUse">
<stop stop-color="#D3CCE3"/>
<stop offset="1" stop-color="#E9E4F0"/>
</linearGradient>
<linearGradient id="paint1_linear_381_747" x1="1.26367" y1="15.9578" x2="16.8286" y2="15.9578" gradientUnits="userSpaceOnUse">
<stop stop-color="#D3CCE3"/>
<stop offset="1" stop-color="#E9E4F0"/>
</linearGradient>
<linearGradient id="paint2_linear_381_747" x1="0.199219" y1="10.0017" x2="4.58467" y2="10.0017" gradientUnits="userSpaceOnUse">
<stop stop-color="#D3CCE3"/>
<stop offset="1" stop-color="#E9E4F0"/>
</linearGradient>
<linearGradient id="paint3_linear_381_747" x1="1.26367" y1="4.04392" x2="16.8911" y2="4.04392" gradientUnits="userSpaceOnUse">
<stop stop-color="#D3CCE3"/>
<stop offset="1" stop-color="#E9E4F0"/>
</linearGradient>
<clipPath id="clip0_381_747">
<rect width="20" height="19.9993" fill="white"/>
</clipPath>
</defs>
</svg>
