<svg width="33" height="33" viewBox="0 0 33 33" fill="none" xmlns="http://www.w3.org/2000/svg">
<path d="M16.4996 21.5004L10.8642 15.865L12.2555 14.4335L15.5096 17.6876V6.59961H17.4896V17.6876L20.7437 14.4335L22.135 15.865L16.4996 21.5004ZM8.98584 26.3996C8.31902 26.3996 7.75461 26.1686 7.29261 25.7066C6.83061 25.2446 6.59961 24.6802 6.59961 24.0134V20.4342H8.57961V24.0134C8.57961 24.115 8.62196 24.2081 8.70666 24.2926C8.79114 24.3773 8.8842 24.4196 8.98584 24.4196H24.0134C24.115 24.4196 24.2081 24.3773 24.2926 24.2926C24.3773 24.2081 24.4196 24.115 24.4196 24.0134V20.4342H26.3996V24.0134C26.3996 24.6802 26.1686 25.2446 25.7066 25.7066C25.2446 26.1686 24.6802 26.3996 24.0134 26.3996H8.98584Z" fill="url(#paint0_linear_391_28)"/>
<defs>
<linearGradient id="paint0_linear_391_28" x1="26.3996" y1="7.49961" x2="5.5351" y2="8.75863" gradientUnits="userSpaceOnUse">
<stop stop-color="#F46B45"/>
<stop offset="1" stop-color="#EEA849"/>
</linearGradient>
</defs>
</svg>
