<svg width="33" height="33" viewBox="0 0 33 33" fill="none" xmlns="http://www.w3.org/2000/svg">
<path d="M6.59961 25.7396V8.46601C6.59961 7.94446 6.78198 7.503 7.14671 7.14164C7.51145 6.78029 7.95704 6.59961 8.48348 6.59961H24.5157C25.0422 6.59961 25.4878 6.78029 25.8525 7.14164C26.2172 7.503 26.3996 7.94446 26.3996 8.46601V20.2199C26.3996 20.7415 26.2172 21.1829 25.8525 21.5443C25.4878 21.9056 25.0422 22.0863 24.5157 22.0863H10.2871L6.59961 25.7396ZM9.62171 20.5376H24.5157C24.596 20.5376 24.6695 20.5045 24.7361 20.4383C24.803 20.3722 24.8365 20.2994 24.8365 20.2199V8.46601C24.8365 8.38652 24.803 8.31373 24.7361 8.24765C24.6695 8.1814 24.596 8.14828 24.5157 8.14828H8.48348C8.40323 8.14828 8.32976 8.1814 8.26307 8.24765C8.1962 8.31373 8.16277 8.38652 8.16277 8.46601V21.9673L9.62171 20.5376Z" fill="url(#paint0_linear_391_34)"/>
<defs>
<linearGradient id="paint0_linear_391_34" x1="26.3996" y1="7.46961" x2="5.54041" y2="8.77172" gradientUnits="userSpaceOnUse">
<stop stop-color="#F46B45"/>
<stop offset="1" stop-color="#EEA849"/>
</linearGradient>
</defs>
</svg>
