<svg width="20" height="20" viewBox="0 0 20 20" fill="none" xmlns="http://www.w3.org/2000/svg">
<mask id="mask0_381_749" style="mask-type:alpha" maskUnits="userSpaceOnUse" x="0" y="0" width="20" height="20">
<rect width="20" height="20" rx="10" fill="white"/>
</mask>
<g mask="url(#mask0_381_749)">
<path fill-rule="evenodd" clip-rule="evenodd" d="M1.40714 1.40714C-1.70299e-07 2.81429 0 5.07143 0 9.6V10.4C0 14.9286 -1.70299e-07 17.1857 1.40714 18.5929C2.81429 20 5.07143 20 9.6 20H10.4C14.9286 20 17.1857 20 18.5929 18.5929C20 17.1857 20 14.9286 20 10.4V9.6C20 5.07143 20 2.81429 18.5929 1.40714C17.1857 -1.70299e-07 14.9286 0 10.4 0H9.6C5.07143 0 2.81429 -1.70299e-07 1.40714 1.40714ZM3.32143 6.25C3.43571 11.45 6.17143 14.5857 10.6786 14.5857H10.9429V11.6071C12.5857 11.7714 13.8143 13 14.3143 14.5857H16.6857C16.4512 13.6934 16.0318 12.8604 15.4547 12.1405C14.8776 11.4207 14.1556 10.8301 13.3357 10.4071C14.0694 9.94543 14.7007 9.3384 15.1908 8.62345C15.681 7.9085 16.0196 7.10076 16.1857 6.25H14.0286C13.5714 7.90714 12.2286 9.40714 10.9429 9.55V6.25H8.75V12.0214C7.42143 11.6929 5.67857 10.0714 5.60714 6.25H3.32143Z" fill="url(#paint0_linear_381_749)"/>
</g>
<defs>
<linearGradient id="paint0_linear_381_749" x1="0" y1="10" x2="20" y2="10" gradientUnits="userSpaceOnUse">
<stop stop-color="#D3CCE3"/>
<stop offset="1" stop-color="#E9E4F0"/>
</linearGradient>
</defs>
</svg>
