<svg width="50" height="50" viewBox="0 0 50 50" fill="none" xmlns="http://www.w3.org/2000/svg">
<path d="M14.5833 34.7174C11.4003 34.7174 8.69497 33.6039 6.46719 31.3768C4.23906 29.1497 3.125 26.4454 3.125 23.2638C3.125 20.0822 4.23906 17.3763 6.46719 15.1461C8.69497 12.9159 11.4003 11.8008 14.5833 11.8008C16.7413 11.8008 18.7418 12.3737 20.5849 13.5195C22.428 14.6654 23.8248 16.1758 24.7755 18.0508H46.875V28.4674H42.7083V34.7174H32.2917V28.4674H24.7755C23.8248 30.3424 22.428 31.8529 20.5849 32.9987C18.7418 34.1445 16.7413 34.7174 14.5833 34.7174ZM14.5833 31.5924C16.875 31.5924 18.7153 30.8893 20.1042 29.4831C21.4931 28.0768 22.3264 26.6966 22.6042 25.3424H35.4167V31.5924H39.5833V25.3424H43.75V21.1758H22.6042C22.3264 19.8216 21.4931 18.4414 20.1042 17.0352C18.7153 15.6289 16.875 14.9258 14.5833 14.9258C12.2917 14.9258 10.3299 15.7418 8.69792 17.3737C7.06597 19.0056 6.25 20.9674 6.25 23.2591C6.25 25.5508 7.06597 27.5126 8.69792 29.1445C10.3299 30.7765 12.2917 31.5924 14.5833 31.5924ZM14.5833 26.6242C15.5087 26.6242 16.3009 26.2947 16.9599 25.6357C17.6189 24.9766 17.9484 24.1845 17.9484 23.2591C17.9484 22.3338 17.6189 21.5416 16.9599 20.8826C16.3009 20.2235 15.5087 19.894 14.5833 19.894C13.658 19.894 12.8658 20.2235 12.2068 20.8826C11.5477 21.5416 11.2182 22.3338 11.2182 23.2591C11.2182 24.1845 11.5477 24.9766 12.2068 25.6357C12.8658 26.2947 13.658 26.6242 14.5833 26.6242Z" fill="url(#paint0_linear_375_256)"/>
<defs>
<linearGradient id="paint0_linear_375_256" x1="46.875" y1="12.8424" x2="1.21101" y2="18.1029" gradientUnits="userSpaceOnUse">
<stop stop-color="#F46B45"/>
<stop offset="1" stop-color="#EEA849"/>
</linearGradient>
</defs>
</svg>
